<svg width="24" height="24" viewBox="0 0 24 24" fill="none" xmlns="http://www.w3.org/2000/svg">
<path fill-rule="evenodd" clip-rule="evenodd" d="M3 2V22L8 20.2L12 22L16 20.2L21 22V2H3ZM7.26 6.25H8H12H12.75V7.75H12H8H7.26V7.04C7.26 7.02 7.25 7.01 7.25 7C7.25 6.99 7.26 6.97 7.26 6.96V6.25ZM16.75 15.75H16H8H7.26V15.04C7.26 15.02 7.25 15.01 7.25 15C7.25 14.99 7.26 14.97 7.26 14.96V14.25H8H16H16.75V15.75ZM16.75 11.75H16H8H7.26V11.04C7.26 11.02 7.25 11.01 7.25 11C7.25 10.99 7.26 10.97 7.26 10.96V10.25H8H16H16.75V11.75Z" fill="#03363D"/>
</svg>
